<?xml version="1.0" encoding="UTF-8" standalone="no"?>
<!DOCTYPE svg PUBLIC "-//W3C//DTD SVG 1.1//EN" "http://www.w3.org/Graphics/SVG/1.1/DTD/svg11.dtd">
<svg width="100%" height="100%" viewBox="0 0 1080 1080" version="1.1" xmlns="http://www.w3.org/2000/svg" xmlns:xlink="http://www.w3.org/1999/xlink" xml:space="preserve" xmlns:serif="http://www.serif.com/" style="fill-rule:evenodd;clip-rule:evenodd;stroke-linecap:round;stroke-linejoin:round;stroke-miterlimit:1.5;">
    <g transform="matrix(1.335783,-0.26643,0,1.367723,-270.845375,-335.47106)">
        <path d="M312,495.187L312,431.762C312,422.531 318.674,415.885 327.943,415.885L652.647,415.885C658.468,415.885 664.503,418.534 669.093,423.105C673.682,427.676 676.343,433.686 676.343,439.483L676.343,489.76C675.787,489.652 675.224,489.599 674.659,489.608L312,495.187ZM676.343,505.566L676.343,721.341C676.343,730.572 669.669,737.218 660.4,737.218L335.696,737.218C329.875,737.218 323.84,734.568 319.25,729.998C314.661,725.427 312,719.417 312,713.62L312,510.994C312.555,511.101 313.119,511.154 313.683,511.145L676.343,505.566Z" style="fill:rgb(91,101,116);"/>
    </g>
    <g transform="matrix(1.654633,0,0,1.654633,-479.918374,-494.569637)">
        <path d="M490.725,529.88C490.725,529.88 701.104,584.212 746.104,721.901C785.771,843.273 721.443,843.742 746.333,846.667C771.224,849.591 625.601,862.106 647.045,841.636C668.489,821.167 661.006,757.966 646.533,716.053C632.06,674.139 617.291,620.677 499.911,569.43C382.53,518.183 490.725,529.88 490.725,529.88Z" style="fill:rgb(247,241,208);"/>
    </g>
    <g transform="matrix(1.654633,0,0,1.654633,-437.173694,-478.744864)">
        <path d="M527.971,843.567C544.637,834.101 557.029,814.101 593.333,812.434C629.637,810.768 713.03,810.768 768,819.101C822.97,827.434 882.97,823.866 866.304,843.567C849.637,863.268 828.804,880.768 798.804,887.434C768.804,894.101 704.637,911.601 655.471,904.934C606.304,898.268 463.804,905.768 479.637,890.768C495.471,875.768 457.971,864.934 469.637,857.434C481.304,849.934 511.304,853.032 527.971,843.567Z" style="fill:rgb(247,241,208);"/>
    </g>
    <g transform="matrix(1.277653,0.408074,0,1.483067,-319.555931,-589.002497)">
        <path d="M667.63,415.885C672.82,415.885 676.343,419.071 676.343,423.764C676.343,466.04 676.343,666.145 676.343,722.447C676.343,725.891 674.434,729.653 671.206,732.572C667.978,735.492 663.818,737.218 660.009,737.218C596.648,737.218 368.268,737.218 320.713,737.218C315.523,737.218 312,734.032 312,729.338C312,687.063 312,486.958 312,430.656C312,427.212 313.909,423.45 317.137,420.53C320.365,417.611 324.525,415.885 328.333,415.885C391.694,415.885 620.075,415.885 667.63,415.885Z" style="fill:rgb(53,95,154);"/>
    </g>
    <g transform="matrix(1.654633,0,0,1.654633,119.013528,-560.711713)">
        <circle cx="198.527" cy="568.704" r="22.167" style="fill:none;stroke:white;stroke-width:3.02px;"/>
    </g>
    <g transform="matrix(1.654633,0,0,1.654633,-437.173694,-478.744864)">
        <path d="M452.667,865.407C459.824,870.741 486.203,881.407 467.347,888.074C448.491,894.741 417.157,883.407 428.491,876.741C439.824,870.074 445.509,860.074 452.667,865.407Z" style="fill:rgb(247,241,208);"/>
    </g>
</svg>
